<?xml version="1.0" standalone="no"?>
<!DOCTYPE svg PUBLIC "-//W3C//DTD SVG 20010904//EN"
 "http://www.w3.org/TR/2001/REC-SVG-20010904/DTD/svg10.dtd">
<svg version="1.0" xmlns="http://www.w3.org/2000/svg"
 width="48.000000pt" height="48.000000pt" viewBox="0 0 48.000000 48.000000"
 preserveAspectRatio="xMidYMid meet">

<g transform="translate(0.000000,48.000000) scale(0.100000,-0.100000)"
fill="#000000" stroke="none">
<path d="M133 467 c-4 -7 -21 -17 -38 -22 -16 -6 -36 -23 -45 -40 -8 -16 -23
-36 -32 -43 -26 -19 -24 -88 2 -104 15 -10 20 -24 20 -56 0 -63 32 -92 102
-93 l53 -1 -36 -12 c-50 -16 -69 -34 -69 -67 l0 -29 150 0 150 0 0 25 c0 14
-5 25 -11 25 -6 0 -9 -7 -5 -15 4 -13 -9 -15 -89 -15 l-94 0 -3 28 -4 27 -11
-25 c-8 -17 -12 -20 -12 -8 -1 28 -20 31 -31 4 -11 -29 -33 -36 -23 -9 15 43
65 55 108 27 23 -15 27 -15 50 0 28 19 58 20 87 5 16 -8 19 -8 16 2 -2 7 -22
18 -44 25 l-39 12 53 1 c70 1 102 30 102 93 0 32 5 46 20 56 26 16 28 85 3
104 -10 7 -25 27 -33 43 -9 17 -29 34 -45 40 -17 5 -34 15 -38 22 -10 16 -39
17 -54 2 -8 -8 -17 -7 -32 3 -17 11 -25 11 -42 0 -15 -10 -24 -11 -32 -3 -15
15 -44 14 -54 -2z m274 -49 c14 -15 17 -37 17 -138 0 -162 8 -155 -184 -155
-190 0 -183 -6 -183 147 -1 122 8 153 45 161 13 3 82 4 155 4 111 -2 135 -5
150 -19z"/>
<path d="M98 409 c-15 -8 -18 -23 -17 -92 l2 -82 7 73 c3 40 12 78 19 85 14
14 254 17 268 3 11 -10 10 -182 0 -193 -5 -4 -67 -8 -138 -8 -103 0 -132 3
-139 15 -5 8 -12 11 -16 7 -4 -3 -1 -13 6 -22 10 -12 39 -15 149 -15 93 0 141
4 149 12 8 8 12 47 12 110 0 86 -2 98 -19 108 -25 13 -260 13 -283 -1z"/>
<path d="M130 375 c-18 -22 -1 -50 31 -50 20 0 24 5 24 30 0 23 -5 31 -21 33
-11 2 -27 -4 -34 -13z m45 -25 c0 -22 -29 -18 -33 3 -3 14 1 18 15 15 10 -2
18 -10 18 -18z"/>
<path d="M294 376 c-11 -28 1 -51 25 -51 32 0 49 28 32 49 -17 20 -50 21 -57
2z m46 -20 c0 -8 -4 -17 -8 -20 -13 -8 -35 11 -28 23 10 16 36 14 36 -3z"/>
<path d="M201 306 c9 -45 69 -45 78 0 3 16 0 15 -18 -6 l-21 -25 -21 25 c-18
21 -21 22 -18 6z"/>
<path d="M118 293 c6 -2 18 -2 25 0 6 3 1 5 -13 5 -14 0 -19 -2 -12 -5z"/>
<path d="M338 293 c6 -2 18 -2 25 0 6 3 1 5 -13 5 -14 0 -19 -2 -12 -5z"/>
<path d="M110 270 c0 -5 6 -10 14 -10 8 0 18 5 21 10 3 6 -3 10 -14 10 -12 0
-21 -4 -21 -10z"/>
<path d="M335 270 c3 -5 13 -10 21 -10 8 0 14 5 14 10 0 6 -9 10 -21 10 -11 0
-17 -4 -14 -10z"/>
</g>
</svg>
